<?xml version="1.0" standalone="no"?>
<!DOCTYPE svg PUBLIC "-//W3C//DTD SVG 20010904//EN"
 "http://www.w3.org/TR/2001/REC-SVG-20010904/DTD/svg10.dtd">
<svg version="1.0" xmlns="http://www.w3.org/2000/svg"
 width="700.000000pt" height="700.000000pt" viewBox="0 0 700.000000 700.000000"
 preserveAspectRatio="xMidYMid meet">
<metadata>
Created by potrace 1.14, written by Peter Selinger 2001-2017
</metadata>
<g transform="translate(0.000000,700.000000) scale(0.100000,-0.100000)"
fill="#000000" stroke="none">
<path d="M2487 6634 c-1 -1 -69 -4 -151 -8 -82 -4 -152 -8 -155 -10 -3 -2 -38
-6 -76 -10 -71 -6 -112 -12 -151 -21 -12 -3 -39 -7 -60 -10 -61 -10 -241 -55
-319 -80 -380 -123 -682 -349 -878 -656 -166 -260 -271 -603 -313 -1024 -14
-148 -18 -400 -18 -1305 0 -926 4 -1204 18 -1330 3 -19 8 -62 11 -95 42 -359
147 -681 303 -925 164 -256 414 -467 697 -587 77 -33 245 -93 245 -88 0 2 19
-2 41 -10 75 -27 297 -67 489 -90 238 -27 2426 -28 2655 0 92 11 141 17 160
20 11 2 40 7 64 10 153 21 402 90 535 149 355 158 590 365 765 676 28 49 51
92 51 94 0 3 13 33 29 68 104 224 176 567 197 933 10 163 10 2156 1 2325 -7
133 -10 155 -33 321 -59 420 -186 742 -398 1006 -212 263 -532 454 -925 553
-110 28 -345 67 -451 75 -47 4 -103 9 -125 12 -33 4 -2202 11 -2208 7z m2233
-447 c25 -4 72 -9 105 -12 222 -21 470 -86 645 -168 236 -111 421 -295 534
-532 38 -79 109 -282 119 -340 3 -16 12 -64 21 -105 8 -41 18 -102 21 -135 4
-33 9 -69 11 -80 15 -74 19 -369 19 -1325 0 -967 -3 -1183 -20 -1310 -2 -19
-7 -57 -11 -85 -35 -295 -153 -615 -289 -785 -54 -68 -180 -184 -251 -230
-190 -125 -459 -215 -734 -246 -25 -3 -56 -7 -70 -9 -87 -16 -354 -20 -1310
-20 -1069 0 -1250 4 -1420 30 -307 48 -539 128 -720 249 -92 62 -222 189 -280
276 -107 159 -207 421 -236 620 -3 19 -7 42 -9 50 -2 8 -7 42 -11 75 -3 33 -8
69 -10 80 -19 100 -29 2264 -11 2500 29 402 117 711 264 935 75 113 139 180
278 288 29 23 159 93 220 120 104 44 286 98 395 117 102 18 253 36 343 41 56
4 103 8 105 9 6 5 2261 -3 2302 -8z"/>
<path d="M2179 5756 c-2 -2 -32 -7 -67 -10 -261 -27 -515 -161 -657 -347 -79
-102 -158 -272 -180 -388 -12 -62 -16 -84 -25 -143 -10 -70 -8 -2714 2 -2763
4 -16 14 -66 23 -109 48 -230 157 -407 346 -559 95 -76 337 -167 486 -182 32
-3 76 -8 98 -10 54 -6 2514 -6 2591 0 522 38 849 317 938 800 9 44 17 105 20
135 6 67 7 2573 1 2615 -2 17 -6 55 -9 85 -17 168 -70 321 -163 468 -42 66
-158 185 -223 229 -109 74 -289 141 -451 169 -44 8 -2722 18 -2730 10z m2607
-440 c340 -32 501 -193 530 -528 6 -66 9 -396 5 -468 -1 -13 -47 -15 -354 -16
-342 0 -353 -1 -394 -22 -53 -27 -80 -56 -104 -107 -37 -80 -16 -187 47 -247
62 -58 76 -60 448 -60 188 0 346 -3 351 -8 8 -6 12 -587 6 -710 -1 -13 -48
-15 -359 -15 l-357 -1 -53 -34 c-87 -57 -120 -150 -91 -254 15 -53 85 -122
141 -136 28 -8 154 -12 376 -12 229 0 334 -4 339 -11 11 -18 6 -467 -7 -537
-49 -283 -183 -414 -470 -461 -108 -17 -2572 -17 -2680 0 -213 35 -342 118
-410 264 -55 118 -72 223 -74 465 l-1 132 145 0 c289 1 496 8 545 19 396 92
660 360 751 763 3 13 7 79 9 148 3 106 0 141 -20 229 -62 267 -230 490 -466
619 -183 101 -281 119 -661 121 -161 1 -295 6 -298 11 -7 11 -4 247 4 336 19
211 107 369 246 443 88 47 166 67 295 78 39 3 71 6 72 7 6 5 2433 -2 2489 -8z
m-2481 -1321 c162 -43 294 -161 355 -320 29 -75 37 -235 16 -306 -56 -186
-216 -336 -395 -369 -29 -6 -177 -10 -327 -10 -254 0 -274 1 -275 18 -1 22 -1
985 0 995 1 4 128 7 284 7 222 0 296 -3 342 -15z"/>
<path d="M1985 3766 c-60 -28 -116 -79 -147 -138 -33 -62 -33 -194 0 -256 28
-53 81 -106 136 -135 34 -18 57 -22 141 -22 113 0 158 16 221 82 60 61 78 107
78 198 1 96 -20 149 -83 212 -83 82 -237 109 -346 59z"/>
</g>
</svg>
